<?xml version="1.0" encoding="UTF-8" standalone="no"?>
<!DOCTYPE svg PUBLIC "-//W3C//DTD SVG 1.1//EN"
 "http://www.w3.org/Graphics/SVG/1.1/DTD/svg11.dtd">
<!-- Generated by graphviz version 7.1.0 (20230121.1956)
 -->
<!-- Title: G Pages: 1 -->
<svg width="791pt" height="604pt"
 viewBox="0.00 0.00 791.20 604.20" xmlns="http://www.w3.org/2000/svg" xmlns:xlink="http://www.w3.org/1999/xlink">
<g id="graph0" class="graph" transform="scale(1 1) rotate(0) translate(21.6 582.6)">
<title>G</title>
<polygon fill="#ffffff" stroke="none" points="-21.6,21.6 -21.6,-582.6 769.6,-582.6 769.6,21.6 -21.6,21.6"/>
<g id="clust1" class="cluster">
<title>cluster_variables</title>
<polygon fill="#ffffff" stroke="black" stroke-dasharray="1,5" points="144.21,-478 144.21,-553 603.79,-553 603.79,-478 144.21,-478"/>
<text text-anchor="middle" x="180.71" y="-485.8" font-family="Helvetica,sans-Serif" font-size="14.00">Variables</text>
</g>
<g id="clust2" class="cluster">
<title>cluster_locals</title>
<polygon fill="#ffffff" stroke="black" stroke-dasharray="1,5" points="405.69,-290 405.69,-459 649.75,-459 649.75,-290 405.69,-290"/>
<text text-anchor="middle" x="433.69" y="-297.8" font-family="Helvetica,sans-Serif" font-size="14.00">Locals</text>
</g>
<g id="clust3" class="cluster">
<title>cluster_vpc</title>
<polygon fill="#ffffff" stroke="black" stroke-dasharray="1,5" points="12.68,-102 12.68,-271 294.76,-271 294.76,-102 12.68,-102"/>
<text text-anchor="middle" x="53.18" y="-109.8" font-family="Helvetica,sans-Serif" font-size="14.00">Resources</text>
</g>
<g id="clust4" class="cluster">
<title>cluster_iam</title>
<polygon fill="#ffffff" stroke="black" stroke-dasharray="1,5" points="358.15,-8 358.15,-271 735.32,-271 735.32,-8 358.15,-8"/>
<text text-anchor="middle" x="378.65" y="-15.8" font-family="Helvetica,sans-Serif" font-size="14.00">IAM</text>
</g>
<g id="clust5" class="cluster">
<title>cluster_outputs</title>
<polygon fill="#ffffff" stroke="black" stroke-dasharray="1,5" points="71.31,-8 71.31,-83 236.13,-83 236.13,-8 71.31,-8"/>
<text text-anchor="middle" x="103.81" y="-15.8" font-family="Helvetica,sans-Serif" font-size="14.00">Outputs</text>
</g>
<!-- [root] var.prefix -->
<g id="node1" class="node">
<title>[root] var.prefix</title>
<polygon fill="#8ed2d0" stroke="#009d9a" stroke-width="2" points="561.26,-545 488.26,-545 488.26,-509 567.26,-509 567.26,-539 561.26,-545"/>
<polyline fill="none" stroke="#009d9a" stroke-width="2" points="561.26,-545 561.26,-539"/>
<polyline fill="none" stroke="#009d9a" stroke-width="2" points="567.26,-539 561.26,-539"/>
<text text-anchor="middle" x="527.76" y="-523.9" font-family="Helvetica,sans-Serif" font-size="12.00" fill="#ffffff">var.prefix</text>
</g>
<!-- [root] var.region -->
<g id="node2" class="node">
<title>[root] var.region</title>
<polygon fill="#8ed2d0" stroke="#009d9a" stroke-width="2" points="407.26,-545 334.26,-545 334.26,-509 413.26,-509 413.26,-539 407.26,-545"/>
<polyline fill="none" stroke="#009d9a" stroke-width="2" points="407.26,-545 407.26,-539"/>
<polyline fill="none" stroke="#009d9a" stroke-width="2" points="413.26,-539 407.26,-539"/>
<text text-anchor="middle" x="373.76" y="-523.9" font-family="Helvetica,sans-Serif" font-size="12.00" fill="#ffffff">var.region</text>
</g>
<!-- [root] var.tags -->
<g id="node3" class="node">
<title>[root] var.tags</title>
<polygon fill="#8ed2d0" stroke="#009d9a" stroke-width="2" points="254.26,-545 181.26,-545 181.26,-509 260.26,-509 260.26,-539 254.26,-545"/>
<polyline fill="none" stroke="#009d9a" stroke-width="2" points="254.26,-545 254.26,-539"/>
<polyline fill="none" stroke="#009d9a" stroke-width="2" points="260.26,-539 254.26,-539"/>
<text text-anchor="middle" x="220.76" y="-523.9" font-family="Helvetica,sans-Serif" font-size="12.00" fill="#ffffff">var.tags</text>
</g>
<!-- [root] random_string.random (expand) -->
<g id="node4" class="node">
<title>[root] random_string.random (expand)</title>
<polygon fill="none" stroke="black" stroke-width="2" points="596.26,-451 459.26,-451 459.26,-415 596.26,-415 596.26,-451"/>
<text text-anchor="middle" x="527.76" y="-429.9" font-family="Helvetica,sans-Serif" font-size="12.00" fill="#646365">random_string.random</text>
</g>
<!-- [root] random_string.random (expand)&#45;&gt;[root] var.prefix -->
<g id="edge11" class="edge">
<title>[root] random_string.random (expand)&#45;&gt;[root] var.prefix</title>
<path fill="none" stroke="#000000" stroke-dasharray="1,5" d="M527.76,-451.74C527.76,-464.89 527.76,-483.07 527.76,-498.16"/>
<polygon fill="#000000" stroke="#000000" points="527.76,-508 523.26,-498 527.76,-503 527.76,-498 527.76,-498 527.76,-498 527.76,-503 532.26,-498 527.76,-508 527.76,-508"/>
</g>
<!-- [root] local.basename (expand) -->
<g id="node5" class="node">
<title>[root] local.basename (expand)</title>
<polygon fill="none" stroke="black" stroke-width="2" points="578.26,-357 477.26,-357 477.26,-321 578.26,-321 578.26,-357"/>
<text text-anchor="middle" x="527.76" y="-335.9" font-family="Helvetica,sans-Serif" font-size="12.00" fill="#646365">local.basename</text>
</g>
<!-- [root] local.basename (expand)&#45;&gt;[root] random_string.random (expand) -->
<g id="edge10" class="edge">
<title>[root] local.basename (expand)&#45;&gt;[root] random_string.random (expand)</title>
<path fill="none" stroke="#000000" stroke-dasharray="1,5" d="M527.76,-357.74C527.76,-370.89 527.76,-389.07 527.76,-404.16"/>
<polygon fill="#000000" stroke="#000000" points="527.76,-414 523.26,-404 527.76,-409 527.76,-404 527.76,-404 527.76,-404 527.76,-409 532.26,-404 527.76,-414 527.76,-414"/>
</g>
<!-- [root] ibm_is_vpc.vpc (expand) -->
<g id="node6" class="node">
<title>[root] ibm_is_vpc.vpc (expand)</title>
<polygon fill="#ecf5ff" stroke="#2973fe" stroke-width="2" points="203.26,-169 104.26,-169 104.26,-133 203.26,-133 203.26,-169"/>
<text text-anchor="middle" x="153.76" y="-147.9" font-family="Helvetica,sans-Serif" font-size="12.00" fill="#646365">ibm_is_vpc.vpc</text>
</g>
<!-- [root] ibm_is_vpc.vpc (expand)&#45;&gt;[root] local.basename (expand) -->
<g id="edge8" class="edge">
<title>[root] ibm_is_vpc.vpc (expand)&#45;&gt;[root] local.basename (expand)</title>
<path fill="none" stroke="#000000" stroke-dasharray="1,5" d="M180.45,-169.87C218.05,-194.58 289.25,-239.67 353.76,-271 390.49,-288.84 433.27,-305.37 467.22,-317.54"/>
<polygon fill="#000000" stroke="#000000" points="476.55,-320.86 465.62,-321.75 471.84,-319.18 467.13,-317.51 467.13,-317.51 467.13,-317.51 471.84,-319.18 468.63,-313.27 476.55,-320.86 476.55,-320.86"/>
</g>
<!-- [root] ibm_resource_group.group (expand) -->
<g id="node7" class="node">
<title>[root] ibm_resource_group.group (expand)</title>
<polygon fill="none" stroke="black" stroke-width="2" points="234.26,-263 73.26,-263 73.26,-227 234.26,-227 234.26,-263"/>
<text text-anchor="middle" x="153.76" y="-241.9" font-family="Helvetica,sans-Serif" font-size="12.00" fill="#646365">ibm_resource_group.group</text>
</g>
<!-- [root] ibm_is_vpc.vpc (expand)&#45;&gt;[root] ibm_resource_group.group (expand) -->
<!-- [root] ibm_is_vpc.vpc (expand)&#45;&gt;[root] ibm_resource_group.group (expand) -->
<g id="edge7" class="edge">
<title>[root] ibm_is_vpc.vpc (expand)&#45;&gt;[root] ibm_resource_group.group (expand)</title>
<path fill="none" stroke="#000000" stroke-dasharray="1,5" d="M159.22,-169.74C160.61,-182.89 160.88,-201.07 160.02,-216.16"/>
<polygon fill="#000000" stroke="#000000" points="159.25,-226 155.55,-215.68 159.64,-221.02 160.03,-216.03 160.03,-216.03 160.03,-216.03 159.64,-221.02 164.52,-216.39 159.25,-226 159.25,-226"/>
</g>
<!-- [root] ibm_resource_group.group (expand)&#45;&gt;[root] local.basename (expand) -->
<g id="edge9" class="edge">
<title>[root] ibm_resource_group.group (expand)&#45;&gt;[root] local.basename (expand)</title>
<path fill="none" stroke="#000000" stroke-dasharray="1,5" d="M226.76,-263.96C296.77,-281.18 401.24,-306.88 466.88,-323.02"/>
<polygon fill="#000000" stroke="#000000" points="476.27,-325.33 465.49,-327.31 471.42,-324.14 466.56,-322.95 466.56,-322.95 466.56,-322.95 471.42,-324.14 467.64,-318.58 476.27,-325.33 476.27,-325.33"/>
</g>
<!-- [root] ibm_iam_access_group.administrators (expand) -->
<g id="node8" class="node">
<title>[root] ibm_iam_access_group.administrators (expand)</title>
<polygon fill="#f6f2ff" stroke="#a56eff" stroke-width="2" points="657.76,-75 435.76,-75 435.76,-39 657.76,-39 657.76,-75"/>
<text text-anchor="middle" x="546.76" y="-53.9" font-family="Helvetica,sans-Serif" font-size="12.00" fill="#646365">ibm_iam_access_group.administrators</text>
</g>
<!-- [root] ibm_iam_access_group.administrators (expand)&#45;&gt;[root] local.basename (expand) -->
<g id="edge4" class="edge">
<title>[root] ibm_iam_access_group.administrators (expand)&#45;&gt;[root] local.basename (expand)</title>
<path fill="none" stroke="#000000" stroke-dasharray="1,5" d="M627.44,-75.91C639.79,-82.16 651,-90.61 658.76,-102 670.66,-119.46 661.16,-257.86 652.76,-271 638.01,-294.09 612.46,-309.76 588.29,-320.11"/>
<polygon fill="#000000" stroke="#000000" points="579.12,-323.82 586.7,-315.9 583.75,-321.94 588.39,-320.07 588.39,-320.07 588.39,-320.07 583.75,-321.94 590.08,-324.24 579.12,-323.82 579.12,-323.82"/>
</g>
<!-- [root] ibm_iam_access_group.developers (expand) -->
<g id="node9" class="node">
<title>[root] ibm_iam_access_group.developers (expand)</title>
<polygon fill="#f6f2ff" stroke="#a56eff" stroke-width="2" points="649.76,-169 443.76,-169 443.76,-133 649.76,-133 649.76,-169"/>
<text text-anchor="middle" x="546.76" y="-147.9" font-family="Helvetica,sans-Serif" font-size="12.00" fill="#646365">ibm_iam_access_group.developers</text>
</g>
<!-- [root] ibm_iam_access_group.administrators (expand)&#45;&gt;[root] ibm_iam_access_group.developers (expand) -->
<!-- [root] ibm_iam_access_group.developers (expand)&#45;&gt;[root] local.basename (expand) -->
<g id="edge5" class="edge">
<title>[root] ibm_iam_access_group.developers (expand)&#45;&gt;[root] local.basename (expand)</title>
<path fill="none" stroke="#000000" stroke-dasharray="1,5" d="M579.91,-169.85C600.14,-182.76 624.26,-202.27 635.76,-227 644.01,-244.73 645.27,-253.91 635.76,-271 624.92,-290.48 605.82,-305.02 586.66,-315.48"/>
<polygon fill="#000000" stroke="#000000" points="577.89,-320.01 584.71,-311.43 582.33,-317.72 586.77,-315.43 586.77,-315.43 586.77,-315.43 582.33,-317.72 588.84,-319.43 577.89,-320.01 577.89,-320.01"/>
</g>
<!-- [root] ibm_iam_access_group.operators (expand) -->
<g id="node10" class="node">
<title>[root] ibm_iam_access_group.operators (expand)</title>
<polygon fill="#f6f2ff" stroke="#a56eff" stroke-width="2" points="626.26,-263 429.26,-263 429.26,-227 626.26,-227 626.26,-263"/>
<text text-anchor="middle" x="527.76" y="-241.9" font-family="Helvetica,sans-Serif" font-size="12.00" fill="#646365">ibm_iam_access_group.operators</text>
</g>
<!-- [root] ibm_iam_access_group.developers (expand)&#45;&gt;[root] ibm_iam_access_group.operators (expand) -->
<!-- [root] ibm_iam_access_group.operators (expand)&#45;&gt;[root] local.basename (expand) -->
<g id="edge6" class="edge">
<title>[root] ibm_iam_access_group.operators (expand)&#45;&gt;[root] local.basename (expand)</title>
<path fill="none" stroke="#000000" stroke-dasharray="1,5" d="M527.76,-263.74C527.76,-276.89 527.76,-295.07 527.76,-310.16"/>
<polygon fill="#000000" stroke="#000000" points="527.76,-320 523.26,-310 527.76,-315 527.76,-310 527.76,-310 527.76,-310 527.76,-315 532.26,-310 527.76,-320 527.76,-320"/>
</g>
<!-- [root] output.vpc_id (expand) -->
<g id="node11" class="node">
<title>[root] output.vpc_id (expand)</title>
<polygon fill="#e2fcea" stroke="#2aaa54" stroke-width="2" points="197.76,-75 109.76,-75 109.76,-39 197.76,-39 197.76,-75"/>
<text text-anchor="middle" x="153.76" y="-53.9" font-family="Helvetica,sans-Serif" font-size="12.00" fill="#646365">output.vpc_id</text>
</g>
<!-- [root] output.vpc_id (expand)&#45;&gt;[root] ibm_is_vpc.vpc (expand) -->
<g id="edge12" class="edge">
<title>[root] output.vpc_id (expand)&#45;&gt;[root] ibm_is_vpc.vpc (expand)</title>
<path fill="none" stroke="#000000" stroke-dasharray="1,5" d="M153.76,-75.74C153.76,-88.89 153.76,-107.07 153.76,-122.16"/>
<polygon fill="#000000" stroke="#000000" points="153.76,-132 149.26,-122 153.76,-127 153.76,-122 153.76,-122 153.76,-122 153.76,-127 158.26,-122 153.76,-132 153.76,-132"/>
</g>
</g>
</svg>
